<?xml version="1.0" encoding="UTF-8"?>
<svg version="1.1" xmlns="http://www.w3.org/2000/svg" width="500" height="500">
<path d="M0 0 C165 0 330 0 500 0 C500 165 500 330 500 500 C335 500 170 500 0 500 C0 335 0 170 0 0 Z " fill="#FDFDFD" transform="translate(0,0)"/>
<path d="M0 0 C1.07525194 2.65228812 2.09456151 5.28368454 3 8 C3.66 8 4.32 8 5 8 C3.42868496 11.9560167 0.66125276 14.40264186 -2.375 17.25 C-11.74411919 26.36713102 -19.41179785 36.77430626 -25.875 48.125 C-26.37422974 49.00043457 -26.37422974 49.00043457 -26.88354492 49.89355469 C-32.79682015 60.72501936 -37.04467275 72.41718264 -41.15234375 84.02612305 C-41.88676407 86.09565004 -42.63453672 88.16005729 -43.3828125 90.22460938 C-43.85757815 91.55700428 -44.33156664 92.88967641 -44.8046875 94.22265625 C-45.22733887 95.40609619 -45.64999023 96.58953613 -46.08544922 97.80883789 C-46.93611405 100.77708136 -47.36385555 102.94517181 -47 106 C-44.08056471 108.91943529 -41.88220638 108.93080734 -37.8125 109.25 C-27.25250828 108.55754153 -16.24710346 102.66557138 -9 95 C5.58519083 77.82856915 11.34686697 55.57747789 13.453125 33.5390625 C13.5257959 32.81895996 13.5984668 32.09885742 13.67333984 31.35693359 C13.86350542 29.37009468 14.02260373 27.38035274 14.1796875 25.390625 C15.18072207 21.25301542 16.75638909 19.67821084 20 17 C24.31151332 14.84424334 29.95183163 15.63677495 34.6875 15.5625 C36.44610352 15.49385742 36.44610352 15.49385742 38.24023438 15.42382812 C39.95243164 15.4015918 39.95243164 15.4015918 41.69921875 15.37890625 C42.73908936 15.3538501 43.77895996 15.32879395 44.8503418 15.30297852 C49.31031426 16.28997343 52.09980695 18.49087853 55 22 C55.68006356 25.09789065 55.89854067 27.13313074 55.79467773 30.20849609 C55.79569992 31.00916504 55.79672211 31.80983398 55.79777527 32.63476562 C55.79292108 35.26570222 55.73859103 37.89311204 55.68359375 40.5234375 C55.67052963 42.35330306 55.6605693 44.18319319 55.65357971 46.01309204 C55.62691781 50.81744599 55.55821245 55.62030638 55.48065186 60.42407227 C55.40890171 65.33068641 55.37704314 70.23754313 55.34179688 75.14453125 C55.26683896 84.76367521 55.14744824 94.38171317 55 104 C56.41783146 104.03063741 57.83585804 104.0523137 59.25390625 104.0703125 C60.0435376 104.08336426 60.83316895 104.09641602 61.64672852 104.10986328 C74.42431225 103.51333743 86.04734074 92.34673775 94.2421875 83.609375 C108.77084829 66.75406035 119.43387983 45.36294156 126.11254883 24.23999023 C128.07114852 18.16040622 128.07114852 18.16040622 131 16 C135.40547281 15.32083775 139.8605701 15.49071063 144.3125 15.5 C145.53646484 15.47164062 146.76042969 15.44328125 148.02148438 15.4140625 C149.79942383 15.41019531 149.79942383 15.41019531 151.61328125 15.40625 C152.69391846 15.39916016 153.77455566 15.39207031 154.88793945 15.38476562 C158.88086242 16.17414084 161.51008651 17.82741995 164 21 C164.86385617 23.91533808 164.81834373 26.71306206 164.77294922 29.73754883 C164.78357895 30.60634674 164.79420868 31.47514465 164.80516052 32.37026978 C164.8331965 35.23311409 164.81915665 38.09411265 164.8046875 40.95703125 C164.81593815 42.94530344 164.82981901 44.93356235 164.84622192 46.92179871 C164.88227935 52.1481427 164.88263094 57.37390194 164.87554932 62.6003418 C164.87463683 67.93614176 164.90748891 73.27172208 164.9375 78.60742188 C164.99138053 89.07167582 165.00754182 99.53562268 165 110 C166.00901367 110.00410889 167.01802734 110.00821777 168.05761719 110.01245117 C171.80780852 110.03425329 175.5569522 110.08855218 179.30664062 110.15258789 C180.92828313 110.17575884 182.55007593 110.19016154 184.171875 110.19555664 C186.50615996 110.20485373 188.83808441 110.245853 191.171875 110.29296875 C191.89493835 110.2890361 192.61800171 110.28510345 193.36297607 110.28105164 C197.04165658 110.38725433 198.70486848 110.73044156 201.45690918 113.24401855 C203.04945297 116.08832368 203.50491959 117.58570266 203.51757812 120.80273438 C203.53018677 121.7271936 203.54279541 122.65165283 203.55578613 123.60412598 C203.54364075 125.08398987 203.54364075 125.08398987 203.53125 126.59375 C203.5350769 127.61803101 203.53890381 128.64231201 203.54284668 129.69763184 C203.5455641 131.8594664 203.53821486 134.02133394 203.52148438 136.18310547 C203.50007318 139.4887027 203.52129269 142.79212647 203.546875 146.09765625 C203.54423169 148.20052562 203.53910666 150.30339364 203.53125 152.40625 C203.53934692 153.39282593 203.54744385 154.37940186 203.55578613 155.39587402 C203.49600485 159.779007 203.4292765 162.3027003 201.09179688 166.09960938 C194.90178145 171.72321816 183.37939156 170.27048349 175.4375 170.5625 C173.78137695 170.62727539 173.78137695 170.62727539 172.09179688 170.69335938 C169.39462815 170.79844387 166.69738297 170.90059413 164 171 C164.00999275 172.61825935 164.00999275 172.61825935 164.02018738 174.26921082 C164.08100365 184.4364771 164.12597516 194.60370648 164.15543652 204.7711134 C164.17109208 209.99828358 164.19232852 215.22530691 164.22631836 220.45239258 C164.25891546 225.49686947 164.27685384 230.54120511 164.28463173 235.58577919 C164.29017459 237.51031022 164.30099841 239.43483353 164.31719017 241.35930443 C164.33896904 244.05505451 164.34196673 246.75022101 164.34057617 249.44604492 C164.35675491 250.63935173 164.35675491 250.63935173 164.3732605 251.85676575 C164.34528034 256.87003155 163.61457105 260.38542895 160 264 C155.54821895 264.2819205 151.08464192 264.23183445 146.625 264.25 C144.7378125 264.2809375 144.7378125 264.2809375 142.8125 264.3125 C141.60851562 264.31765625 140.40453125 264.3228125 139.1640625 264.328125 C138.05498535 264.3374707 136.9459082 264.34681641 135.80322266 264.35644531 C133 264 133 264 131.18212891 262.63598633 C127.40119803 257.40343412 127.18316051 250.26781845 126.25 244.0625 C120.00767488 204.90961152 120.00767488 204.90961152 97.08984375 174.15625 C90.90076024 170.7320094 85.09089968 170.66428749 78.1875 170.6875 C76.76727539 170.66333008 76.76727539 170.66333008 75.31835938 170.63867188 C69.13359007 170.63441532 63.63951725 171.32292046 58 174 C55.54258616 176.45741384 55.755865 177.83023924 55.72102356 181.18452454 C55.72357651 181.90504501 55.72612946 182.62556549 55.72875977 183.36791992 C55.72353302 184.1275 55.71830627 184.88708008 55.71292114 185.66967773 C55.70266559 187.32242448 55.69689804 188.97520367 55.69503975 190.62798119 C55.69138289 193.24720243 55.67467292 195.86604267 55.65428162 198.48518372 C55.59881945 205.93316546 55.56824945 213.38120485 55.54370117 220.8293457 C55.52778521 225.38348496 55.49751708 229.93735721 55.45893669 234.4913578 C55.44731483 236.22439033 55.44135659 237.95747073 55.44125557 239.69054222 C55.44106253 242.12234533 55.42272249 244.55341828 55.40063477 246.98510742 C55.40521194 247.69550674 55.40978912 248.40590607 55.414505 249.13783264 C55.33171624 254.89960225 54.16939388 259.83060612 50 264 C45.59998663 264.39948471 41.18541838 264.32901561 36.76928711 264.31567383 C34.57420079 264.31251683 32.38046615 264.33595761 30.18554688 264.36132812 C28.79166837 264.36360143 27.39778623 264.36430447 26.00390625 264.36328125 C24.73361572 264.36626221 23.4633252 264.36924316 22.15454102 264.37231445 C19 264 19 264 17.12475586 262.60229492 C14.9722731 259.53592974 14.66316387 257.00644171 14.203125 253.3125 C10.85892361 227.53576648 6.26787788 199.39823172 -14.875 181.625 C-20.43478489 177.44012328 -26.39574639 174.20141787 -33 172 C-33 171.34 -33 170.68 -33 170 C-37.58978038 169.9007037 -42.17892788 169.82833252 -46.76953125 169.78027344 C-48.32921244 169.76022778 -49.88881913 169.73298343 -51.44824219 169.69824219 C-53.69745314 169.64940874 -55.9456659 169.62696185 -58.1953125 169.609375 C-58.8861795 169.58872986 -59.57704651 169.56808472 -60.28884888 169.54681396 C-65.35282217 169.54449668 -68.25612402 170.59819208 -72 174 C-73.34206186 176.67431526 -74.29539238 179.00426728 -75.19921875 181.8203125 C-75.4804509 182.63621857 -75.76168304 183.45212463 -76.05143738 184.29275513 C-76.68980003 186.14753176 -77.31953859 188.00529076 -77.94232178 189.86535645 C-79.309489 193.9172333 -80.7329759 197.94844154 -82.15543938 201.98117447 C-83.77310081 206.56908702 -85.38136277 211.1601735 -86.98242188 215.75390625 C-87.33004672 216.75118555 -87.33004672 216.75118555 -87.68469429 217.76861191 C-88.15614452 219.12135652 -88.62753851 220.47412073 -89.09887695 221.8269043 C-90.99312923 227.26340186 -92.88902808 232.69932279 -94.78699303 238.1345253 C-95.44270948 240.01364489 -96.09695866 241.89327629 -96.75117493 243.7729187 C-97.34771126 245.48223068 -97.34771126 245.48223068 -97.95629883 247.22607422 C-98.30380692 248.22355682 -98.651315 249.22103943 -99.00935364 250.24874878 C-99.94906819 252.85855074 -100.95273384 255.43171096 -102 258 C-102.66 258 -103.32 258 -104 258 C-104 258.66 -104 259.32 -104 260 C-105.78040327 262.0367888 -107.30759477 262.90236521 -109.99240112 263.28094482 C-112.53995534 263.39821568 -115.07086254 263.4155643 -117.62109375 263.3984375 C-118.55800552 263.40130768 -119.4949173 263.40417786 -120.46022034 263.40713501 C-122.43971359 263.4091745 -124.41922705 263.40365267 -126.39868164 263.39111328 C-129.42314942 263.37507609 -132.44627721 263.39095667 -135.47070312 263.41015625 C-137.39583628 263.40817345 -139.32096859 263.404329 -141.24609375 263.3984375 C-142.14831161 263.40451019 -143.05052948 263.41058289 -143.98008728 263.4168396 C-152.51077913 263.32166503 -152.51077913 263.32166503 -156 260 C-159.90904908 253.38055723 -161.88844208 245.59484941 -164.203125 238.31640625 C-164.79564308 236.4740313 -164.79564308 236.4740313 -165.40013123 234.59443665 C-166.46779438 231.27425377 -167.52931069 227.95213596 -168.58962631 224.62960052 C-169.70171255 221.14855021 -170.81956707 217.66935298 -171.93676758 214.18994141 C-173.97976804 207.82424504 -176.01781297 201.45697577 -178.05332851 195.08888245 C-180.21867261 188.31477901 -182.38853928 181.54212708 -184.55859375 174.76953125 C-187.44810057 165.74934227 -190.33257988 156.72755839 -193.2144928 147.7049408 C-195.21364071 141.44985452 -197.22248803 135.19793579 -199.23492432 128.94711304 C-203.94923975 114.30188414 -208.62202365 99.64385602 -213.25952148 84.97412109 C-214.25841114 81.81618061 -215.25939088 78.65891774 -216.26132107 75.50194168 C-217.23749494 72.42382821 -218.2103091 69.34465302 -219.18359375 66.265625 C-219.53876572 65.14794739 -219.89393768 64.03026978 -220.25987244 62.87872314 C-222.02390989 57.28467871 -223.65530322 51.70989551 -225 46 C-230.83384802 47.12913187 -236.03218094 48.70052409 -241.51171875 50.984375 C-249.51654835 54.25165239 -256.80784139 56.1456941 -265.5 56.25 C-267.43359375 56.28867188 -267.43359375 56.28867188 -269.40625 56.328125 C-273.26019581 55.97624299 -275.01500386 55.41742645 -278 53 C-281.32659239 48.57188696 -281.74888163 44.94746 -281.6015625 39.5234375 C-279.82327834 29.10777311 -273.71847955 19.79672625 -266.2734375 12.50390625 C-263.5253251 10.68599684 -261.2495802 10.33054469 -258 10 C-258 9.34 -258 8.68 -258 8 C-244.85424967 5.97757687 -231.89782179 5.76109641 -220.40234375 13.15234375 C-215.46101868 16.95274498 -210.05701763 21.59997547 -209 28 C-200.6963503 24.66062606 -200.6963503 24.66062606 -192.6875 20.6875 C-188.95993824 18.74166587 -186.16126069 18.65322828 -182 19 C-182 20.65 -182 22.3 -182 24 C-182.763125 24.268125 -183.52625 24.53625 -184.3125 24.8125 C-186.96533064 25.78249633 -186.96533064 25.78249633 -188.390625 27.44140625 C-190.27625005 29.26753342 -192.03053445 30.09402319 -194.4375 31.125 C-195.19933594 31.45757812 -195.96117187 31.79015625 -196.74609375 32.1328125 C-198.82243897 32.93168362 -200.84064915 33.4822095 -203 34 C-201.37612337 36.66735629 -199.75106381 39.3339772 -198.125 42 C-197.62250732 42.8245166 -197.12001465 43.6490332 -196.60229492 44.49853516 C-194.2965235 48.27412247 -191.98554819 52.04414105 -189.60546875 55.7734375 C-176.93953628 75.63180053 -165.68113679 96.38083749 -154.546875 117.12402344 C-150.99343806 123.73063442 -147.40157707 130.3161623 -143.7890625 136.890625 C-141.97485731 140.19484751 -140.20124255 143.51568898 -138.4609375 146.859375 C-137.6823478 148.32294653 -136.90370536 149.78649001 -136.125 151.25 C-135.79209961 151.91193359 -135.45919922 152.57386719 -135.11621094 153.25585938 C-133.32211324 156.58037408 -132.25759941 157.88757052 -128.7421875 159.421875 C-127.83726562 159.61265625 -126.93234375 159.8034375 -126 160 C-125.73010254 159.29182129 -125.46020508 158.58364258 -125.18212891 157.85400391 C-122.96754205 152.50734542 -120.10756749 147.47107642 -117.375 142.375 C-117.04697388 141.76207092 -116.71894775 141.14914185 -116.38098145 140.51763916 C-109.00144818 126.75961694 -101.0822992 113.35667368 -93 100 C-92.45794922 99.09942871 -91.91589844 98.19885742 -91.35742188 97.27099609 C-73.73490648 67.99578932 -54.37102935 40.99089198 -30 17 C-28.70255859 15.67355469 -28.70255859 15.67355469 -27.37890625 14.3203125 C-25.04768738 12.04651281 -22.80240376 10.62244428 -20 9 C-19.30583984 8.29617187 -19.30583984 8.29617187 -18.59765625 7.578125 C-16.8708634 5.87244209 -15.11820973 4.66129822 -13.0625 3.375 C-12.39347656 2.94960937 -11.72445313 2.52421875 -11.03515625 2.0859375 C-7.34871014 0.11888948 -4.13803356 -0.11494538 0 0 Z " fill="#020202" transform="translate(289,66)"/>
<path d="M0 0 C0.76267181 -0.00478363 1.52534363 -0.00956726 2.31112671 -0.01449585 C3.91642328 -0.01788624 5.5217897 -0.0087439 7.12695312 0.01220703 C9.58619228 0.03906528 12.04089923 0.01239874 14.5 -0.01953125 C16.06251007 -0.01622844 17.62501733 -0.00982485 19.1875 0 C19.92191315 -0.01012115 20.65632629 -0.02024231 21.41299438 -0.03067017 C23.48681641 0.01708984 23.48681641 0.01708984 26.9609375 0.6640625 C28.82177734 3.14306641 28.82177734 3.14306641 29.9609375 5.6640625 C30.6209375 5.9940625 31.2809375 6.3240625 31.9609375 6.6640625 C32.01032726 12.87539506 32.04665226 19.08661362 32.07080078 25.2980957 C32.08086644 27.41172272 32.09452007 29.5253358 32.11181641 31.63891602 C32.1360398 34.67467692 32.14741488 37.71025393 32.15625 40.74609375 C32.16657257 41.69305618 32.17689514 42.64001862 32.18753052 43.61567688 C32.18775711 44.93670662 32.18775711 44.93670662 32.18798828 46.28442383 C32.1924295 47.05941727 32.19687073 47.83441071 32.20144653 48.63288879 C31.9609375 50.6640625 31.9609375 50.6640625 29.9609375 53.6640625 C28.9709375 53.9940625 27.9809375 54.3240625 26.9609375 54.6640625 C26.4659375 55.6540625 26.4659375 55.6540625 25.9609375 56.6640625 C21.37123669 56.81300436 16.78295828 56.92154883 12.19140625 56.99365234 C10.63158653 57.0237235 9.0719345 57.0645935 7.51269531 57.11669922 C5.26325057 57.189957 3.01604981 57.22361059 0.765625 57.25 C0.074758 57.28096771 -0.61610901 57.31193542 -1.32791138 57.34384155 C-5.11646156 57.34644203 -7.62052057 56.66287691 -10.47924805 54.26831055 C-14.11687719 50.106221 -13.88721488 45.71336481 -13.80078125 40.41015625 C-13.80414993 39.43168228 -13.80751862 38.45320831 -13.81098938 37.44508362 C-13.81069126 35.38333868 -13.79551115 33.3215486 -13.76635742 31.26000977 C-13.72663744 28.10751018 -13.74567386 24.95921068 -13.77148438 21.80664062 C-13.76392599 19.79946288 -13.75297325 17.79229445 -13.73828125 15.78515625 C-13.74526535 14.84546494 -13.75224945 13.90577362 -13.75944519 12.93760681 C-13.66574155 8.58914639 -13.4383252 6.26866304 -10.99780273 2.57299805 C-7.29160813 0.18181597 -4.27999744 -0.0593108 0 0 Z " fill="#F0F0F0" transform="translate(190.0390625,379.3359375)"/>
<path d="M0 0 C5.671875 -0.103125 11.34375 -0.20625 17.1875 -0.3125 C18.96922607 -0.35802002 20.75095215 -0.40354004 22.58666992 -0.45043945 C24.00958375 -0.46505167 25.43251857 -0.47779061 26.85546875 -0.48828125 C27.95066833 -0.526651 27.95066833 -0.526651 29.06799316 -0.5657959 C32.84828017 -0.56901316 34.83361087 -0.11464217 37.96972656 2.04614258 C40.46384429 5.67484994 40.70931224 8.49132249 40.62890625 12.75 C40.63131821 13.48573242 40.63373016 14.22146484 40.63621521 14.97949219 C40.63523915 16.52935191 40.62190273 18.07924753 40.59692383 19.62890625 C40.56259583 21.99339913 40.57627685 24.35415414 40.59570312 26.71875 C40.58880421 28.22918248 40.57913139 29.73960537 40.56640625 31.25 C40.57136612 31.9522168 40.57632599 32.65443359 40.58143616 33.37792969 C40.50079312 36.76016811 40.0177281 38.96728804 38.39916992 41.95385742 C35.16376544 44.71318631 33.2613027 44.57756997 29.046875 44.48828125 C28.05654266 44.47766914 28.05654266 44.47766914 27.04620361 44.46684265 C24.94629508 44.43894727 22.84909621 44.37623287 20.75 44.3125 C19.3229553 44.28741017 17.89586862 44.26459817 16.46875 44.24414062 C12.97829252 44.1891412 9.48941089 44.10290912 6 44 C6 47.96 6 51.92 6 56 C4.02 56 2.04 56 0 56 C0 37.52 0 19.04 0 0 Z " fill="#161616" transform="translate(283,380)"/>
<path d="M0 0 C5.81625 -0.12375 11.6325 -0.2475 17.625 -0.375 C19.4498291 -0.42962402 21.2746582 -0.48424805 23.15478516 -0.54052734 C24.61618408 -0.55806603 26.07761252 -0.57335181 27.5390625 -0.5859375 C28.28567139 -0.6166333 29.03228027 -0.6473291 29.80151367 -0.67895508 C33.9513651 -0.68307608 36.35990962 -0.17169667 39.48339844 2.66479492 C42.09173832 5.67757478 42.75072323 7.90947904 42.7265625 11.94921875 C42.72527344 13.04427734 42.72398437 14.13933594 42.72265625 15.26757812 C42.69042969 16.39615234 42.65820312 17.52472656 42.625 18.6875 C42.63466797 20.39776367 42.63466797 20.39776367 42.64453125 22.14257812 C42.56328122 28.39513729 42.56328122 28.39513729 42 31 C39.96240234 32.84692383 39.96240234 32.84692383 38 34 C38.4886846 38.76467485 40.01661381 42.46178053 42.01171875 46.7421875 C43.3384506 49.77321915 44.18238418 52.79767136 45 56 C42.69 56 40.38 56 38 56 C37.67386719 55.20335937 37.34773438 54.40671875 37.01171875 53.5859375 C36.57472656 52.52632813 36.13773438 51.46671875 35.6875 50.375 C35.25824219 49.33085937 34.82898438 48.28671875 34.38671875 47.2109375 C33.03840145 44.0889183 31.52085262 41.04170524 30 38 C18.615 37.505 18.615 37.505 7 37 C7 43.27 7 49.54 7 56 C4.69 56 2.38 56 0 56 C0 37.52 0 19.04 0 0 Z " fill="#141414" transform="translate(125,380)"/>
<path d="M0 0 C6.93 0 13.86 0 21 0 C22.8125 6.8125 22.8125 6.8125 23.41308594 9.07543945 C24.42878717 12.89406667 25.48150133 16.69925467 26.5625 20.5 C28.15834412 26.2729443 29.25063793 32.12437688 30.3515625 38.0078125 C30.68910224 40.86953712 30.68910224 40.86953712 32 42 C32.397493 44.34723966 32.74368723 46.70328548 33.0625 49.0625 C33.23910156 50.35285156 33.41570312 51.64320313 33.59765625 52.97265625 C33.79681641 54.47119141 33.79681641 54.47119141 34 56 C32.02 56 30.04 56 28 56 C25.60038859 50.88778439 24.84895224 47.94266566 24 42 C10.635 42.495 10.635 42.495 -3 43 C-3.99 46.96 -4.98 50.92 -6 55 C-7 56 -7 56 -10.5625 56.0625 C-11.696875 56.041875 -12.83125 56.02125 -14 56 C-13.7159949 53.93643105 -13.42246648 51.8741715 -13.125 49.8125 C-12.96257813 48.66394531 -12.80015625 47.51539063 -12.6328125 46.33203125 C-12.05506275 43.28992916 -11.16990152 40.8464533 -10 38 C-9.62193198 36.19630049 -9.28914618 34.38257193 -9 32.5625 C-8.35508526 28.5145084 -7.31889229 24.87936249 -6 21 C-4.92839802 17.38352408 -3.90276573 13.75414404 -2.875 10.125 C-2.59785156 9.15046875 -2.32070313 8.1759375 -2.03515625 7.171875 C-1.35556604 4.78159221 -0.67761846 2.3908425 0 0 Z " fill="#191919" transform="translate(37,380)"/>
<path d="M0 0 C7.26 0 14.52 0 22 0 C22.45572917 2.9296875 22.91145833 5.859375 23.3671875 8.7890625 C23.91954756 11.965926 23.91954756 11.965926 24.94921875 14.79296875 C26.33699741 19.02853112 27.11256425 23.31284071 27.9375 27.6875 C29.18507235 34.14177138 30.57278804 40.47159033 32.40625 46.7890625 C33.22712889 49.84575625 33.65081692 52.85735227 34 56 C31.69 56 29.38 56 27 56 C26.66179834 54.4176994 26.32964061 52.83410625 26 51.25 C25.814375 50.36828125 25.62875 49.4865625 25.4375 48.578125 C25 46 25 46 25 42 C15.43 42 5.86 42 -4 42 C-4.33 45.3 -4.66 48.6 -5 52 C-6.0625 55.125 -6.0625 55.125 -7 57 C-9.31 57 -11.62 57 -14 57 C-14.20092593 52.68009259 -13.61021173 49.95867938 -12 46 C-11.49228194 44.04887404 -11.01416241 42.08985908 -10.5625 40.125 C-9.72557382 36.65894207 -8.85417874 33.66169467 -7.4375 30.375 C-5.57093651 25.99263354 -4.84200498 21.67097651 -4 17 C-3.48507459 14.3319927 -2.96450896 11.66559603 -2.4375 9 C-2.18871094 7.72125 -1.93992187 6.4425 -1.68359375 5.125 C-1 2 -1 2 0 0 Z " fill="#1A1A1A" transform="translate(341,380)"/>
<path d="M0 0 C0.76267181 -0.00478363 1.52534363 -0.00956726 2.31112671 -0.01449585 C3.91642328 -0.01788624 5.5217897 -0.0087439 7.12695312 0.01220703 C9.58619228 0.03906528 12.04089923 0.01239874 14.5 -0.01953125 C16.06251007 -0.01622844 17.62501733 -0.00982485 19.1875 0 C19.92191315 -0.01012115 20.65632629 -0.02024231 21.41299438 -0.03067017 C23.48681641 0.01708984 23.48681641 0.01708984 26.9609375 0.6640625 C28.82177734 3.14306641 28.82177734 3.14306641 29.9609375 5.6640625 C30.6209375 5.9940625 31.2809375 6.3240625 31.9609375 6.6640625 C32.01032726 12.87539506 32.04665226 19.08661362 32.07080078 25.2980957 C32.08086644 27.41172272 32.09452007 29.5253358 32.11181641 31.63891602 C32.1360398 34.67467692 32.14741488 37.71025393 32.15625 40.74609375 C32.16657257 41.69305618 32.17689514 42.64001862 32.18753052 43.61567688 C32.18775711 44.93670662 32.18775711 44.93670662 32.18798828 46.28442383 C32.1924295 47.05941727 32.19687073 47.83441071 32.20144653 48.63288879 C31.9609375 50.6640625 31.9609375 50.6640625 29.9609375 53.6640625 C28.9709375 53.9940625 27.9809375 54.3240625 26.9609375 54.6640625 C26.4659375 55.6540625 26.4659375 55.6540625 25.9609375 56.6640625 C21.37123669 56.81300436 16.78295828 56.92154883 12.19140625 56.99365234 C10.63158653 57.0237235 9.0719345 57.0645935 7.51269531 57.11669922 C5.26325057 57.189957 3.01604981 57.22361059 0.765625 57.25 C0.074758 57.28096771 -0.61610901 57.31193542 -1.32791138 57.34384155 C-5.11646156 57.34644203 -7.62052057 56.66287691 -10.47924805 54.26831055 C-14.11687719 50.106221 -13.88721488 45.71336481 -13.80078125 40.41015625 C-13.80414993 39.43168228 -13.80751862 38.45320831 -13.81098938 37.44508362 C-13.81069126 35.38333868 -13.79551115 33.3215486 -13.76635742 31.26000977 C-13.72663744 28.10751018 -13.74567386 24.95921068 -13.77148438 21.80664062 C-13.76392599 19.79946288 -13.75297325 17.79229445 -13.73828125 15.78515625 C-13.74526535 14.84546494 -13.75224945 13.90577362 -13.75944519 12.93760681 C-13.66574155 8.58914639 -13.4383252 6.26866304 -10.99780273 2.57299805 C-7.29160813 0.18181597 -4.27999744 -0.0593108 0 0 Z M-6.0390625 6.6640625 C-6.0390625 21.1840625 -6.0390625 35.7040625 -6.0390625 50.6640625 C-1.1096875 50.6846875 3.8196875 50.7053125 8.8984375 50.7265625 C10.45554443 50.7356665 12.01265137 50.74477051 13.61694336 50.75415039 C14.83260986 50.75664795 16.04827637 50.75914551 17.30078125 50.76171875 C18.55238037 50.76695557 19.80397949 50.77219238 21.09350586 50.77758789 C23.85826044 50.99293285 23.85826044 50.99293285 24.9609375 49.6640625 C25.05362749 48.31311268 25.07841076 46.95739159 25.07446289 45.60327148 C25.07434959 44.31204628 25.07434959 44.31204628 25.07423401 42.99473572 C25.06649208 41.59161888 25.06649208 41.59161888 25.05859375 40.16015625 C25.05647133 38.73063377 25.05647133 38.73063377 25.05430603 37.27223206 C25.04868902 34.21531085 25.03613366 31.15846173 25.0234375 28.1015625 C25.01842469 26.03450626 25.01386141 23.96744888 25.00976562 21.90039062 C24.99956308 16.82156417 24.97999106 11.74289444 24.9609375 6.6640625 C14.7309375 6.6640625 4.5009375 6.6640625 -6.0390625 6.6640625 Z " fill="#161616" transform="translate(190.0390625,379.3359375)"/>
<path d="M0 0 C0.74900574 0.0028299 1.49801147 0.00565979 2.26971436 0.00857544 C4.65393276 0.0197399 7.03777079 0.04483719 9.421875 0.0703125 C11.04166123 0.08034715 12.66145336 0.08947215 14.28125 0.09765625 C18.24493746 0.11966695 22.20834181 0.15417075 26.171875 0.1953125 C26.171875 2.1753125 26.171875 4.1553125 26.171875 6.1953125 C9.836875 6.6903125 9.836875 6.6903125 -6.828125 7.1953125 C-7.158125 12.4753125 -7.488125 17.7553125 -7.828125 23.1953125 C-6.63574219 23.18371094 -5.44335938 23.17210937 -4.21484375 23.16015625 C-2.64843906 23.15077658 -1.08203269 23.14167657 0.484375 23.1328125 C1.27005859 23.12443359 2.05574219 23.11605469 2.86523438 23.10742188 C3.62255859 23.10419922 4.37988281 23.10097656 5.16015625 23.09765625 C5.85665283 23.09241943 6.55314941 23.08718262 7.27075195 23.08178711 C9.171875 23.1953125 9.171875 23.1953125 12.171875 24.1953125 C14.73822361 24.42249746 17.28865607 24.61139434 19.859375 24.7578125 C20.56126953 24.80099609 21.26316406 24.84417969 21.98632812 24.88867188 C23.71462706 24.9944861 25.4432261 25.09537831 27.171875 25.1953125 C27.20079449 29.48696512 27.21864618 33.77859286 27.234375 38.0703125 C27.24275391 39.29363281 27.25113281 40.51695312 27.25976562 41.77734375 C27.26298828 42.94394531 27.26621094 44.11054688 27.26953125 45.3125 C27.27476807 46.39128418 27.28000488 47.47006836 27.28540039 48.58154297 C27.171875 51.1953125 27.171875 51.1953125 26.171875 53.1953125 C24.83854167 53.52864583 23.50520833 53.86197917 22.171875 54.1953125 C21.676875 55.1853125 21.676875 55.1853125 21.171875 56.1953125 C9.621875 56.1953125 -1.928125 56.1953125 -13.828125 56.1953125 C-13.828125 53.8853125 -13.828125 51.5753125 -13.828125 49.1953125 C-2.938125 49.1953125 7.951875 49.1953125 19.171875 49.1953125 C19.171875 43.9153125 19.171875 38.6353125 19.171875 33.1953125 C18.058125 33.14632812 16.944375 33.09734375 15.796875 33.046875 C5.49346234 32.55520896 -4.60626124 31.58920301 -14.828125 30.1953125 C-14.828125 21.9453125 -14.828125 13.6953125 -14.828125 5.1953125 C-14.168125 5.1953125 -13.508125 5.1953125 -12.828125 5.1953125 C-12.498125 4.2053125 -12.168125 3.2153125 -11.828125 2.1953125 C-8.27577591 -0.45847529 -4.23665749 -0.06048322 0 0 Z " fill="#181818" transform="translate(245.828125,379.8046875)"/>
<path d="M0 0 C12.54 0 25.08 0 38 0 C38 2.31 38 4.62 38 7 C27.77 7 17.54 7 7 7 C7 12.61 7 18.22 7 24 C15.91 24 24.82 24 34 24 C34 26.31 34 28.62 34 31 C25.09 31 16.18 31 7 31 C7 36.94 7 42.88 7 49 C17.56 49 28.12 49 39 49 C39 51.31 39 53.62 39 56 C26.13 56 13.26 56 0 56 C0 37.52 0 19.04 0 0 Z " fill="#1B1B1B" transform="translate(426,380)"/>
<path d="M0 0 C2.5459446 2.5459446 2.86074854 4.59974468 3.8125 8.0625 C6.20627074 16.07719906 8.75605889 23.23969584 16 28 C15.505 29.485 15.505 29.485 15 31 C14.34 31 13.68 31 13 31 C6.66168314 43.52610643 6.66168314 43.52610643 3 57 C1.42111807 54.94509695 -0.07336979 52.88556648 -1.47265625 50.703125 C-7.93903429 40.72551957 -16.21328806 34.7736938 -27 30 C-24.76807792 28.30335688 -22.54669571 26.70787057 -20.1875 25.1875 C-10.7559793 18.71488776 -4.00774424 10.84448443 0 0 Z " fill="#F6F6F6" transform="translate(424,176)"/>
<path d="M0 0 C7.37150838 0.76256983 7.37150838 0.76256983 10.8125 2.0625 C14.58836233 3.17304775 17.46894485 2.99349577 21.375 2.625 C22.62023437 2.51414062 23.86546875 2.40328125 25.1484375 2.2890625 C26.08945312 2.19367187 27.03046875 2.09828125 28 2 C25.76389356 4.40811463 23.8017231 6.11718673 20.953125 7.80078125 C17.40441018 10.4435411 16.20209393 13.15711428 14.75 17.1875 C12.21654275 23.89172862 12.21654275 23.89172862 10 25 C9.62875 24.195625 9.2575 23.39125 8.875 22.5625 C7.20534045 19.82432851 7.20534045 19.82432851 4.375 18.875 C-1.82715145 19.10470931 -6.08323093 22.1498485 -10.47265625 26.38671875 C-13.53149144 29.71413459 -16.35797719 32.89412339 -18.6328125 36.8125 C-19.08398438 37.534375 -19.53515625 38.25625 -20 39 C-20.66 39 -21.32 39 -22 39 C-22.66 37.02 -23.32 35.04 -24 33 C-24.61488281 33.02320313 -25.22976562 33.04640625 -25.86328125 33.0703125 C-26.67152344 33.08835938 -27.47976562 33.10640625 -28.3125 33.125 C-29.11300781 33.14820313 -29.91351563 33.17140625 -30.73828125 33.1953125 C-33 33 -33 33 -36 31 C-36.25660094 27.92078868 -36.39431504 25.78863007 -35 23 C-34.01 23 -33.02 23 -32 23 C-31.92377142 19.03611362 -32.0318352 15.8726592 -33 12 C-25.08 12.66 -17.16 13.32 -9 14 C-9 13.34 -9 12.68 -9 12 C-6.03 11.01 -3.06 10.02 0 9 C0 6.03 0 3.06 0 0 Z " fill="#232323" transform="translate(233,19)"/>
<path d="M0 0 C-0.72877626 3.78963653 -1.83835158 6.78418906 -4 10 C-7.07034863 11.62987724 -10.27603849 12.48550804 -13.625 13.375 C-14.92244141 13.76365234 -14.92244141 13.76365234 -16.24609375 14.16015625 C-21.2715968 15.58417435 -25.68385621 16.15221503 -30.89160156 15.98925781 C-34.26028435 16.00642109 -37.31806507 16.83156461 -40.5625 17.6875 C-41.57570313 17.95216064 -41.57570313 17.95216064 -42.609375 18.22216797 C-48.89577646 19.89689553 -55.09413915 21.84458646 -61.28125 23.8515625 C-63.99791215 24.69053169 -66.61066632 25.37124728 -69.375 25.984375 C-73.17391421 26.59117881 -73.17391421 26.59117881 -74.5 29.625 C-74.665 30.40875 -74.83 31.1925 -75 32 C-75.66 32 -76.32 32 -77 32 C-77 31.34 -77 30.68 -77 30 C-77.804375 29.855625 -78.60875 29.71125 -79.4375 29.5625 C-82 29 -82 29 -83 28 C-83.26919991 23.9620014 -82.93137318 21.51922149 -81 18 C-80.36835938 18.05800781 -79.73671875 18.11601563 -79.0859375 18.17578125 C-71.7624603 18.54512088 -66.22316011 16.93801567 -59.42578125 14.30078125 C-55.51528739 12.81595291 -51.58761492 11.7369204 -47.54296875 10.69140625 C-44.26266038 9.79952517 -41.07390981 8.69744929 -37.875 7.55078125 C-36 7 -36 7 -33 7 C-32.82339844 6.39671875 -32.64679688 5.7934375 -32.46484375 5.171875 C-30.2683329 1.91518157 -27.17300308 1.29995946 -23.5625 0.25 C-22.84545898 0.034646 -22.12841797 -0.18070801 -21.38964844 -0.40258789 C-14.18203995 -2.43990631 -6.78403095 -3.8743663 0 0 Z " fill="#0B0B0B" transform="translate(432,15)"/>
<path d="M0 0 C8.91 0 17.82 0 27 0 C27 10.23 27 20.46 27 31 C18.09 31 9.18 31 0 31 C0 20.77 0 10.54 0 0 Z " fill="#F6F6F6" transform="translate(290,387)"/>
<path d="M0 0 C12.21 0 24.42 0 37 0 C37 1.65 37 3.3 37 5 C21.655 5.495 21.655 5.495 6 6 C5.67 11.94 5.34 17.88 5 24 C14.24 24 23.48 24 33 24 C33 25.98 33 27.96 33 30 C24.09 30 15.18 30 6 30 C6 36.6 6 43.2 6 50 C16.56 50 27.12 50 38 50 C38 51.98 38 53.96 38 56 C25.46 56 12.92 56 0 56 C0 37.52 0 19.04 0 0 Z " fill="#0C0C0C" transform="translate(79,380)"/>
<path d="M0 0 C1.92875977 0.02900391 1.92875977 0.02900391 3.89648438 0.05859375 C5.23440006 0.10871031 6.5722907 0.1594998 7.91015625 0.2109375 C9.27533177 0.24107669 10.64057142 0.26844556 12.00585938 0.29296875 C15.3297719 0.36344039 18.65038131 0.46193643 21.97265625 0.5859375 C21.97265625 2.8959375 21.97265625 5.2059375 21.97265625 7.5859375 C12.73265625 7.5859375 3.49265625 7.5859375 -6.02734375 7.5859375 C-6.02734375 21.7759375 -6.02734375 35.9659375 -6.02734375 50.5859375 C3.54265625 50.5859375 13.11265625 50.5859375 22.97265625 50.5859375 C22.97265625 52.5659375 22.97265625 54.5459375 22.97265625 56.5859375 C18.66778519 56.73496109 14.36430375 56.84346097 10.05761719 56.91552734 C8.59478587 56.94558552 7.13213308 56.98644606 5.66992188 57.03857422 C3.55944728 57.11189452 1.45136538 57.14549702 -0.66015625 57.171875 C-1.92746582 57.2032959 -3.19477539 57.2347168 -4.50048828 57.26708984 C-8.5070625 56.49328796 -10.23500825 55.53684249 -12.89508057 52.51846313 C-15.09786855 48.75878579 -14.90139725 44.84331537 -14.859375 40.5859375 C-14.87154305 39.15507812 -14.87154305 39.15507812 -14.88395691 37.6953125 C-14.89239597 35.68490309 -14.88560383 33.67437888 -14.86450195 31.6640625 C-14.83990923 28.59411142 -14.88463416 25.53045752 -14.93554688 22.4609375 C-14.9351764 20.5025989 -14.93075483 18.544256 -14.921875 16.5859375 C-14.93918167 15.67328125 -14.95648834 14.760625 -14.97431946 13.8203125 C-14.89586833 10.23416695 -14.7673981 7.6288997 -12.65608215 4.65341187 C-8.70096528 0.90129083 -5.51816432 -0.14715105 0 0 Z " fill="#1E1E1E" transform="translate(395.02734375,379.4140625)"/>
<path d="M0 0 C0.495 3.465 0.495 3.465 1 7 C0.01 7.4125 -0.98 7.825 -2 8.25 C-4.63394732 9.36982191 -7.15985082 10.59683912 -9.6875 11.9375 C-14.04110401 14.16968053 -18.59125208 15.56186753 -23.265625 16.97265625 C-25.99364007 17.99761048 -27.70498171 19.24660603 -30 21 C-31.64431303 21.66259324 -33.31445636 22.26319337 -35 22.8125 C-40.33907474 24.66614659 -45.26409053 27.02687189 -50.2734375 29.6328125 C-53.92450195 31.46357547 -57.42023913 32.84969163 -61.375 33.875 C-64.68510889 34.90227517 -67.13644812 36.07832318 -70.03125 37.90234375 C-72.91566025 39.51051692 -75.95482154 40.73445625 -79 42 C-79.63953613 42.26997803 -80.27907227 42.53995605 -80.93798828 42.81811523 C-82.89188072 43.63951075 -84.8513781 44.44603759 -86.8125 45.25 C-87.47958984 45.53101563 -88.14667969 45.81203125 -88.83398438 46.1015625 C-90.53283718 46.79413216 -92.26486295 47.40413673 -94 48 C-94.66 47.67 -95.32 47.34 -96 47 C-94.02 46.34 -92.04 45.68 -90 45 C-90 43.35 -90 41.7 -90 40 C-90.99 39.67 -91.98 39.34 -93 39 C-90 37 -90 37 -86 37 C-86 36.34 -86 35.68 -86 35 C-82.535 34.505 -82.535 34.505 -79 34 C-79 33.34 -79 32.68 -79 32 C-68.61585802 28.1763066 -68.61585802 28.1763066 -63.5625 26.625 C-57.7489589 24.71840856 -52.41507833 21.8149518 -47 19 C-42.39447572 16.61371799 -37.8623395 14.52977785 -32.98046875 12.7734375 C-31.00964569 12.00376696 -29.18566345 11.10674185 -27.3125 10.125 C-22.71247493 7.75225979 -17.90706028 5.98922367 -13.06640625 4.171875 C-10.62959374 3.24060907 -8.25229725 2.25753613 -5.875 1.1875 C-3 0 -3 0 0 0 Z " fill="#E7B022" transform="translate(197,45)"/>
<path d="M0 0 C1.21042969 -0.00128906 2.42085937 -0.00257813 3.66796875 -0.00390625 C4.94285156 -0.00003906 6.21773437 0.00382812 7.53125 0.0078125 C9.44357422 0.00201172 9.44357422 0.00201172 11.39453125 -0.00390625 C13.21017578 -0.00197266 13.21017578 -0.00197266 15.0625 0 C16.18205078 0.00112793 17.30160156 0.00225586 18.45507812 0.00341797 C21.03125 0.1328125 21.03125 0.1328125 22.03125 1.1328125 C22.11851223 2.91352496 22.13824041 4.6976439 22.12890625 6.48046875 C22.12640869 7.45250244 22.12391113 8.42453613 22.12133789 9.42602539 C22.11223389 10.66989014 22.10312988 11.91375488 22.09375 13.1953125 C22.073125 17.1346875 22.0525 21.0740625 22.03125 25.1328125 C12.46125 25.1328125 2.89125 25.1328125 -6.96875 25.1328125 C-6.989375 21.1934375 -7.01 17.2540625 -7.03125 13.1953125 C-7.04490601 11.32951538 -7.04490601 11.32951538 -7.05883789 9.42602539 C-7.06258423 7.96797485 -7.06258423 7.96797485 -7.06640625 6.48046875 C-7.07164307 5.48023682 -7.07687988 4.48000488 -7.08227539 3.44946289 C-6.85752139 -1.1369688 -3.94243522 0.00397194 0 0 Z " fill="#FEFEFE" transform="translate(137.96875,385.8671875)"/>
<path d="M0 0 C0.33 0 0.66 0 1 0 C1 13.86 1 27.72 1 42 C0.34 42 -0.32 42 -1 42 C-1 41.34 -1 40.68 -1 40 C-1.58007812 39.73445313 -2.16015625 39.46890625 -2.7578125 39.1953125 C-5.07532308 37.95984519 -6.86302306 36.55817137 -8.875 34.875 C-14.8042477 30.15742436 -21.37405149 26.62872003 -28 23 C-28 22.01 -28 21.02 -28 20 C-27.26136719 19.6596875 -26.52273438 19.319375 -25.76171875 18.96875 C-15.83287832 14.22511086 -6.68109261 8.90812348 0 0 Z " fill="#EDEDED" transform="translate(301,185)"/>
<path d="M0 0 C0.495 3.465 0.495 3.465 1 7 C-3.14035044 9.10746706 -7.28470942 11.20675845 -11.43286133 13.29882812 C-12.84119753 14.01050369 -14.24844573 14.72433681 -15.65454102 15.44042969 C-17.6847839 16.4739032 -19.71891268 17.49935647 -21.75390625 18.5234375 C-22.37399063 18.84122162 -22.99407501 19.15900574 -23.63294983 19.48641968 C-27.70511905 21.52327311 -31.61379849 22.87331447 -36 24 C-36 24.66 -36 25.32 -36 26 C-36.94875 26.350625 -37.8975 26.70125 -38.875 27.0625 C-43.28949712 28.9312135 -46.99928875 31.6717655 -50.86328125 34.4765625 C-53 36 -53 36 -55 37 C-57.5 34.75 -57.5 34.75 -60 32 C-60 30.68 -60 29.36 -60 28 C-61.32 27.67 -62.64 27.34 -64 27 C-62.80117188 26.56300781 -62.80117188 26.56300781 -61.578125 26.1171875 C-54.77559683 23.57821572 -48.31002644 20.74177951 -41.859375 17.4140625 C-38.34916931 15.67814111 -34.75742159 14.27223136 -31.10546875 12.8671875 C-28.56971787 11.82277805 -26.34330037 10.41831338 -24 9 C-22.05382463 8.2283139 -20.08789103 7.52679113 -18.1171875 6.8203125 C-15.24878363 5.70893831 -12.55626576 4.31813306 -9.8203125 2.91796875 C-6.42460002 1.20553864 -3.82422744 0 0 0 Z " fill="#FEF610" transform="translate(349,38)"/>
<path d="M0 0 C3.75272073 2.21314299 7.38098365 4.78053759 8.59130859 9.12011719 C8.72617676 9.74047852 8.86104492 10.36083984 9 11 C-8.15108788 17.26182083 -8.15108788 17.26182083 -17 19 C-17.33 19.33 -17.66 19.66 -18 20 C-20.53049402 20.07313567 -23.03304837 20.09247527 -25.5625 20.0625 C-26.27341797 20.05798828 -26.98433594 20.05347656 -27.71679688 20.04882812 C-29.47790013 20.03700864 -31.23896036 20.01907263 -33 20 C-33.3359375 17.28515625 -33.3359375 17.28515625 -33 14 C-25.0037082 5.63274621 -11.95089063 -2.84545015 0 0 Z " fill="#F2F2F2" transform="translate(51,91)"/>
<path d="M0 0 C1.23556641 0.01740234 1.23556641 0.01740234 2.49609375 0.03515625 C3.32238281 0.04417969 4.14867187 0.05320312 5 0.0625 C5.63808594 0.07410156 6.27617188 0.08570313 6.93359375 0.09765625 C8.85071528 3.48374103 9.66617158 6.8086922 10.49609375 10.59765625 C10.74488281 11.72171875 10.99367188 12.84578125 11.25 14.00390625 C11.47558594 15.02484375 11.70117188 16.04578125 11.93359375 17.09765625 C12.22556641 18.04125 12.22556641 18.04125 12.5234375 19.00390625 C13.17078418 22.30845694 12.93359375 25.7302963 12.93359375 29.09765625 C5.67359375 29.09765625 -1.58640625 29.09765625 -9.06640625 29.09765625 C-7.9399718 20.08618067 -7.9399718 20.08618067 -6.91015625 15.9765625 C-6.69230469 15.10451172 -6.47445312 14.23246094 -6.25 13.33398438 C-6.02441406 12.45162109 -5.79882812 11.56925781 -5.56640625 10.66015625 C-5.22802734 9.29600586 -5.22802734 9.29600586 -4.8828125 7.90429688 C-2.92241591 0.13811039 -2.92241591 0.13811039 0 0 Z " fill="#EBEBEB" transform="translate(45.06640625,385.90234375)"/>
<path d="M0 0 C2.64 0 5.28 0 8 0 C13.23278586 9.24725135 14.08197854 17.56793797 15 28 C7.74 28 0.48 28 -7 28 C-5.95121951 17.51219512 -5.95121951 17.51219512 -4 13 C-3.6186926 10.67402489 -3.27539746 8.34087842 -3 6 C-2.34 6 -1.68 6 -1 6 C-0.67 4.02 -0.34 2.04 0 0 Z " fill="#EFEFEF" transform="translate(347,387)"/>
<path d="M0 0 C-0.7281688 3.78647777 -1.8461874 6.78363985 -4 10 C-7.02639846 11.63319781 -10.18733458 12.49343275 -13.5 13.375 C-14.84626465 13.75712646 -14.84626465 13.75712646 -16.21972656 14.14697266 C-22.52246776 15.84509104 -28.46281218 16.8096517 -35 16 C-34.67 15.34 -34.34 14.68 -34 14 C-33.34 14 -32.68 14 -32 14 C-32.33 12.02 -32.66 10.04 -33 8 C-33.99 7.67 -34.98 7.34 -36 7 C-35.01 7 -34.02 7 -33 7 C-32.73509766 6.09507813 -32.73509766 6.09507813 -32.46484375 5.171875 C-30.2683329 1.91518157 -27.17300308 1.29995946 -23.5625 0.25 C-22.84545898 0.034646 -22.12841797 -0.18070801 -21.38964844 -0.40258789 C-14.18203995 -2.43990631 -6.78403095 -3.8743663 0 0 Z " fill="#292928" transform="translate(432,15)"/>
<path d="M0 0 C1.64510941 0.00015915 3.29022379 0.00585551 4.93530273 0.01586914 C6.23164894 0.01799156 6.23164894 0.01799156 7.55418396 0.02015686 C10.32578941 0.025773 13.09731528 0.0383282 15.86889648 0.05102539 C17.74324428 0.05603831 19.61759334 0.06060158 21.49194336 0.06469727 C26.09679192 0.07574767 30.70158069 0.09302309 35.30639648 0.11352539 C35.34881372 2.44647314 35.34732586 4.78055106 35.30639648 7.11352539 C34.30639648 8.11352539 34.30639648 8.11352539 31.43896484 8.22705078 C30.18736572 8.22181396 28.9357666 8.21657715 27.64624023 8.21118164 C26.64954063 8.20905922 26.64954063 8.20905922 25.63270569 8.20689392 C23.50305749 8.20128057 21.37351309 8.18872593 19.24389648 8.17602539 C17.80314279 8.1710121 16.36238745 8.1664489 14.92163086 8.16235352 C11.3831469 8.15215616 7.84488835 8.1325837 4.30639648 8.11352539 C4.30639648 13.39352539 4.30639648 18.67352539 4.30639648 24.11352539 C13.21639648 24.11352539 22.12639648 24.11352539 31.30639648 24.11352539 C31.30639648 26.75352539 31.30639648 29.39352539 31.30639648 32.11352539 C22.39639648 32.11352539 13.48639648 32.11352539 4.30639648 32.11352539 C4.30639648 38.05352539 4.30639648 43.99352539 4.30639648 50.11352539 C14.53639648 50.11352539 24.76639648 50.11352539 35.30639648 50.11352539 C35.30639648 50.44352539 35.30639648 50.77352539 35.30639648 51.11352539 C24.74639648 51.11352539 14.18639648 51.11352539 3.30639648 51.11352539 C3.30639648 44.51352539 3.30639648 37.91352539 3.30639648 31.11352539 C12.21639648 31.11352539 21.12639648 31.11352539 30.30639648 31.11352539 C30.30639648 29.13352539 30.30639648 27.15352539 30.30639648 25.11352539 C21.06639648 25.11352539 11.82639648 25.11352539 2.30639648 25.11352539 C2.28577148 22.16415039 2.26514648 19.21477539 2.24389648 16.17602539 C2.23479248 15.24540283 2.22568848 14.31478027 2.21630859 13.35595703 C2.21381104 12.62755615 2.21131348 11.89915527 2.20874023 11.14868164 C2.20350342 10.39981689 2.1982666 9.65095215 2.19287109 8.87939453 C2.30639648 7.11352539 2.30639648 7.11352539 3.30639648 6.11352539 C5.59791066 6.02561564 7.89212173 6.00658501 10.18530273 6.01586914 C11.2152964 6.01799156 11.2152964 6.01799156 12.26609802 6.02015686 C14.46707449 6.0257706 16.66795057 6.03832532 18.86889648 6.05102539 C20.35782731 6.05603863 21.84675973 6.06060184 23.33569336 6.06469727 C26.99262723 6.07574446 30.64950207 6.09301826 34.30639648 6.11352539 C34.30639648 4.46352539 34.30639648 2.81352539 34.30639648 1.11352539 C22.09639648 1.11352539 9.88639648 1.11352539 -2.69360352 1.11352539 C-2.69360352 19.59352539 -2.69360352 38.07352539 -2.69360352 57.11352539 C9.84639648 57.11352539 22.38639648 57.11352539 35.30639648 57.11352539 C35.30639648 57.44352539 35.30639648 57.77352539 35.30639648 58.11352539 C29.77051115 58.13817314 24.23465748 58.15636035 18.69873047 58.16845703 C16.81395919 58.17349783 14.92919184 58.18033037 13.04443359 58.18896484 C10.34138013 58.20104156 7.63837818 58.20675608 4.93530273 58.21118164 C4.08738663 58.21634293 3.23947052 58.22150421 2.36585999 58.2268219 C0.3456858 58.22701734 -1.67438286 58.1755875 -3.69360352 58.11352539 C-5.39925969 56.40786921 -4.82112407 54.20619044 -4.82299805 51.87524414 C-4.82615021 50.75738525 -4.82930237 49.63952637 -4.83255005 48.48779297 C-4.83052582 47.27115967 -4.82850159 46.05452637 -4.82641602 44.80102539 C-4.82737274 43.5618335 -4.82832947 42.3226416 -4.82931519 41.04589844 C-4.82999725 38.41964258 -4.82863889 35.79347906 -4.82397461 33.16723633 C-4.81827732 29.79423825 -4.82155654 26.42131974 -4.82754707 23.04832458 C-4.83202122 19.84088862 -4.82889234 16.63346239 -4.82641602 13.42602539 C-4.82844025 12.20939209 -4.83046448 10.99275879 -4.83255005 9.73925781 C-4.82939789 8.62139893 -4.82624573 7.50354004 -4.82299805 6.35180664 C-4.82220245 5.36220947 -4.82140686 4.3726123 -4.82058716 3.35302734 C-4.60581975 -0.43464179 -3.97305942 0.12211466 0 0 Z " fill="#8C8C8C" transform="translate(81.693603515625,378.886474609375)"/>
<path d="M0 0 C0.33 2.31 0.66 4.62 1 7 C-2.95509495 9.00645249 -6.91459021 11.00406136 -10.875 13 C-12.00292969 13.57234375 -13.13085938 14.1446875 -14.29296875 14.734375 C-15.36933594 15.27578125 -16.44570313 15.8171875 -17.5546875 16.375 C-19.04718018 17.12910156 -19.04718018 17.12910156 -20.56982422 17.8984375 C-23 19 -23 19 -25 19 C-25 16.69 -25 14.38 -25 12 C-25.66 11.67 -26.32 11.34 -27 11 C-26.46632813 10.76925781 -25.93265625 10.53851563 -25.3828125 10.30078125 C-20.28921393 8.07123032 -15.30643674 5.68663584 -10.359375 3.1484375 C-3.89115646 0 -3.89115646 0 0 0 Z " fill="#FFC11B" transform="translate(349,38)"/>
<path d="M0 0 C0 1.65 0 3.3 0 5 C-0.763125 5.268125 -1.52625 5.53625 -2.3125 5.8125 C-4.96533064 6.78249633 -4.96533064 6.78249633 -6.390625 8.44140625 C-8.27625005 10.26753342 -10.03053445 11.09402319 -12.4375 12.125 C-13.19933594 12.45757812 -13.96117188 12.79015625 -14.74609375 13.1328125 C-17 14 -17 14 -19.22265625 14.4921875 C-19.80917969 14.65976563 -20.39570312 14.82734375 -21 15 C-21.33 15.66 -21.66 16.32 -22 17 C-26 12.375 -26 12.375 -26 9 C-25.46632813 8.76925781 -24.93265625 8.53851563 -24.3828125 8.30078125 C-20.11379232 6.43216169 -15.97910868 4.45942047 -11.875 2.25 C-7.60707724 0.06935822 -4.74307788 -0.51555194 0 0 Z " fill="#564F29" transform="translate(107,85)"/>
<path d="M0 0 C11.22 0 22.44 0 34 0 C34 1.98 34 3.96 34 6 C17.665 6.495 17.665 6.495 1 7 C0.67 12.28 0.34 17.56 0 23 C1.19238281 22.98839844 2.38476562 22.97679687 3.61328125 22.96484375 C5.17968594 22.95546408 6.74609231 22.94636407 8.3125 22.9375 C9.09818359 22.92912109 9.88386719 22.92074219 10.69335938 22.91210938 C11.45068359 22.90888672 12.20800781 22.90566406 12.98828125 22.90234375 C13.68477783 22.89710693 14.38127441 22.89187012 15.09887695 22.88647461 C17 23 17 23 20 24 C22.56634861 24.22718496 25.11678107 24.41608184 27.6875 24.5625 C28.38939453 24.60568359 29.09128906 24.64886719 29.81445312 24.69335938 C31.54275206 24.7991736 33.2713511 24.90006581 35 25 C35.02891949 29.29165262 35.04677118 33.58328036 35.0625 37.875 C35.07087891 39.09832031 35.07925781 40.32164062 35.08789062 41.58203125 C35.09111328 42.74863281 35.09433594 43.91523438 35.09765625 45.1171875 C35.10289307 46.19597168 35.10812988 47.27475586 35.11352539 48.38623047 C35 51 35 51 34 53 C33.01 52.505 33.01 52.505 32 52 C32.495 51.01 32.495 51.01 33 50 C33.15306901 48.18828902 33.24946661 46.3716206 33.31640625 44.5546875 C33.37924805 42.94013672 33.37924805 42.94013672 33.44335938 41.29296875 C33.48267578 40.16503906 33.52199219 39.03710938 33.5625 37.875 C33.62727539 36.17150391 33.62727539 36.17150391 33.69335938 34.43359375 C33.7996604 31.62252232 33.90169405 28.81136055 34 26 C32.93471069 26.00785522 32.93471069 26.00785522 31.84790039 26.01586914 C28.5861095 26.03683761 25.32433286 26.04972281 22.0625 26.0625 C20.94552734 26.07087891 19.82855469 26.07925781 18.67773438 26.08789062 C12.3655785 26.10640135 6.24847991 25.93173371 0 25 C-1.5220959 23.4779041 -1.12959521 22.11789918 -1.1328125 20 C-1.13410156 19.195625 -1.13539063 18.39125 -1.13671875 17.5625 C-1.13285156 16.716875 -1.12898437 15.87125 -1.125 15 C-1.12886719 14.154375 -1.13273438 13.30875 -1.13671875 12.4375 C-1.13542969 11.633125 -1.13414062 10.82875 -1.1328125 10 C-1.13168457 9.2575 -1.13055664 8.515 -1.12939453 7.75 C-1 6 -1 6 0 5 C2.44830426 4.91156207 4.86820599 4.88471248 7.31640625 4.90234375 C8.04746078 4.9037587 8.77851532 4.90517365 9.53172302 4.90663147 C11.87535632 4.91224592 14.21889539 4.92480078 16.5625 4.9375 C18.14778508 4.94251314 19.73307166 4.94707637 21.31835938 4.95117188 C25.2122761 4.96222003 29.10612205 4.97949428 33 5 C33 3.68 33 2.36 33 1 C22.11 1 11.22 1 0 1 C0 0.67 0 0.34 0 0 Z " fill="#363636" transform="translate(238,380)"/>
<path d="M0 0 C1.21042969 -0.00128906 2.42085937 -0.00257813 3.66796875 -0.00390625 C4.94285156 -0.00003906 6.21773437 0.00382812 7.53125 0.0078125 C9.44357422 0.00201172 9.44357422 0.00201172 11.39453125 -0.00390625 C13.21017578 -0.00197266 13.21017578 -0.00197266 15.0625 0 C16.18205078 0.00112793 17.30160156 0.00225586 18.45507812 0.00341797 C21.03125 0.1328125 21.03125 0.1328125 22.03125 1.1328125 C22.11851223 2.91352496 22.13824041 4.6976439 22.12890625 6.48046875 C22.12640869 7.45250244 22.12391113 8.42453613 22.12133789 9.42602539 C22.11223389 10.66989014 22.10312988 11.91375488 22.09375 13.1953125 C22.073125 17.1346875 22.0525 21.0740625 22.03125 25.1328125 C12.46125 25.1328125 2.89125 25.1328125 -6.96875 25.1328125 C-6.989375 21.1934375 -7.01 17.2540625 -7.03125 13.1953125 C-7.04490601 11.32951538 -7.04490601 11.32951538 -7.05883789 9.42602539 C-7.06258423 7.96797485 -7.06258423 7.96797485 -7.06640625 6.48046875 C-7.07164307 5.48023682 -7.07687988 4.48000488 -7.08227539 3.44946289 C-6.85752139 -1.1369688 -3.94243522 0.00397194 0 0 Z M-4.96875 2.1328125 C-4.96875 9.3928125 -4.96875 16.6528125 -4.96875 24.1328125 C3.28125 24.1328125 11.53125 24.1328125 20.03125 24.1328125 C20.03125 16.8728125 20.03125 9.6128125 20.03125 2.1328125 C11.78125 2.1328125 3.53125 2.1328125 -4.96875 2.1328125 Z " fill="#AFAFAF" transform="translate(137.96875,385.8671875)"/>
<path d="M0 0 C7.37150838 0.76256983 7.37150838 0.76256983 10.8125 2.0625 C14.58836233 3.17304775 17.46894485 2.99349577 21.375 2.625 C23.24285156 2.45871094 23.24285156 2.45871094 25.1484375 2.2890625 C26.08945312 2.19367187 27.03046875 2.09828125 28 2 C25.43075944 4.70811843 22.94953588 6.83027847 19.75 8.75 C18.69039062 9.39195313 18.69039062 9.39195313 17.609375 10.046875 C16.81273437 10.51867187 16.81273437 10.51867187 16 11 C16 9.68 16 8.36 16 7 C11.02936879 6.08702692 6.97063121 6.08702692 2 7 C0 4 0 4 0 0 Z " fill="#0C0C0C" transform="translate(233,19)"/>
<path d="M0 0 C7.26 0.66 14.52 1.32 22 2 C19.58732445 4.41267555 17.40601598 5.21247109 14.25 6.5 C13.22390625 6.9228125 12.1978125 7.345625 11.140625 7.78125 C8.12003347 8.95341985 5.08242293 10.00328839 2 11 C1.34 7.37 0.68 3.74 0 0 Z " fill="#070707" transform="translate(200,31)"/>
<path d="M0 0 C-0.55598836 4.22703482 -1.97502626 6.85684559 -4.4375 10.3125 C-5.05496094 11.19550781 -5.67242187 12.07851563 -6.30859375 12.98828125 C-6.86675781 13.65214844 -7.42492187 14.31601562 -8 15 C-8.66 15 -9.32 15 -10 15 C-10.66 13.02 -11.32 11.04 -12 9 C-12.66 9 -13.32 9 -14 9 C-14 7.68 -14 6.36 -14 5 C-12.04350603 4.16235732 -10.08474444 3.33000941 -8.125 2.5 C-6.48917969 1.80390625 -6.48917969 1.80390625 -4.8203125 1.09375 C-2 0 -2 0 0 0 Z " fill="#0E0E0E" transform="translate(221,43)"/>
<path d="M0 0 C2.31 0.33 4.62 0.66 7 1 C7 3.31 7 5.62 7 8 C7.99 8.33 8.98 8.66 10 9 C9.34 9 8.68 9 8 9 C7.34 10.65 6.68 12.3 6 14 C5.34 14 4.68 14 4 14 C4 13.34 4 12.68 4 12 C3.195625 11.855625 2.39125 11.71125 1.5625 11.5625 C-1 11 -1 11 -2 10 C-2.2632246 6.05163095 -2.08997373 3.39620731 0 0 Z " fill="#353231" transform="translate(351,33)"/>
<path d="M0 0 C2.60423592 -0.02697137 5.20819244 -0.04682489 7.8125 -0.0625 C8.55048828 -0.07087891 9.28847656 -0.07925781 10.04882812 -0.08789062 C13.29922068 -0.10259828 15.89404895 -0.03531702 19 1 C21.56634861 1.22718496 24.11678107 1.41608184 26.6875 1.5625 C27.38939453 1.60568359 28.09128906 1.64886719 28.81445312 1.69335938 C30.54275206 1.7991736 32.2713511 1.90006581 34 2 C34.02891949 6.29165262 34.04677118 10.58328036 34.0625 14.875 C34.07087891 16.09832031 34.07925781 17.32164062 34.08789062 18.58203125 C34.09111328 19.74863281 34.09433594 20.91523438 34.09765625 22.1171875 C34.10289307 23.19597168 34.10812988 24.27475586 34.11352539 25.38623047 C34 28 34 28 33 30 C32.34 29.67 31.68 29.34 31 29 C31.33 28.34 31.66 27.68 32 27 C32.15306901 25.18828902 32.24946661 23.3716206 32.31640625 21.5546875 C32.35451416 20.58515137 32.39262207 19.61561523 32.43188477 18.61669922 C32.47498779 17.38193848 32.51809082 16.14717773 32.5625 14.875 C32.706875 10.95625 32.85125 7.0375 33 3 C24.75 3 16.5 3 8 3 C8 2.34 8 1.68 8 1 C5.36 1 2.72 1 0 1 C0 0.67 0 0.34 0 0 Z " fill="#838383" transform="translate(239,403)"/>
<path d="M0 0 C0.33 2.31 0.66 4.62 1 7 C-2.85756507 9.15305957 -5.55129785 10.39253254 -10 10 C-10.33 8.02 -10.66 6.04 -11 4 C-9.73308493 3.32591692 -8.46129251 2.66099503 -7.1875 2 C-6.47980469 1.62875 -5.77210938 1.2575 -5.04296875 0.875 C-3 0 -3 0 0 0 Z " fill="#FF7D1C" transform="translate(349,38)"/>
<path d="M0 0 C0.66 0.33 1.32 0.66 2 1 C1.01 2.485 1.01 2.485 0 4 C-0.3663859 6.41713479 -0.3663859 6.41713479 -0.4140625 9.10546875 C-0.45273438 10.08837891 -0.49140625 11.07128906 -0.53125 12.08398438 C-0.5621875 13.10814453 -0.593125 14.13230469 -0.625 15.1875 C-0.66367188 16.22326172 -0.70234375 17.25902344 -0.7421875 18.32617188 C-0.83647869 20.88382027 -0.91932918 23.44188578 -1 26 C2.3 26 5.6 26 9 26 C9 26.66 9 27.32 9 28 C5.04 28 1.08 28 -3 28 C-3 19.75 -3 11.5 -3 3 C-2.34 3 -1.68 3 -1 3 C-0.67 2.01 -0.34 1.02 0 0 Z " fill="#4C4C4C" transform="translate(234,382)"/>
<path d="M0 0 C1.625 2.75 1.625 2.75 3 6 C2.3125 8.3125 2.3125 8.3125 1 10 C0.01 10.495 0.01 10.495 -1 11 C-3.5 8.75 -3.5 8.75 -6 6 C-6 4.68 -6 3.36 -6 2 C-7.32 1.67 -8.64 1.34 -10 1 C-6.56484998 0.37542727 -3.50935186 0 0 0 Z " fill="#5B5A18" transform="translate(295,64)"/>
<path d="M0 0 C1.07525194 2.65228812 2.09456151 5.28368454 3 8 C3.66 8 4.32 8 5 8 C3.63016497 11.16115776 3.0109362 11.9927092 0 14 C-0.4021875 12.2984375 -0.4021875 12.2984375 -0.8125 10.5625 C-1.204375 9.386875 -1.59625 8.21125 -2 7 C-2.99 6.67 -3.98 6.34 -5 6 C-5 4.68 -5 3.36 -5 2 C-6.65 2.33 -8.3 2.66 -10 3 C-9 1 -9 1 -7.25 0.375 C-4.79549443 -0.03408426 -2.4840589 -0.06900164 0 0 Z " fill="#363613" transform="translate(289,66)"/>
<path d="M0 0 C1.8125 2.25 1.8125 2.25 3 5 C2.6875 7.3125 2.6875 7.3125 2 9 C0.68 9.33 -0.64 9.66 -2 10 C-5 5.25 -5 5.25 -5 3 C-7.64 3.33 -10.28 3.66 -13 4 C-8.68630028 1.12420019 -5.19265239 0 0 0 Z " fill="#CFCD30" transform="translate(300,61)"/>
<path d="M0 0 C0.33 2.31 0.66 4.62 1 7 C-3.95 8.485 -3.95 8.485 -9 10 C-9.375 7.25 -9.375 7.25 -9 4 C-5.87476431 1.36091208 -4.13534147 0 0 0 Z " fill="#FF3309" transform="translate(197,45)"/>
<path d="M0 0 C3.43427331 0.4121128 6.54005162 0.82428938 9.78125 2.0625 C13.57123336 3.16637865 16.45723008 2.99460094 20.375 2.625 C22.24285156 2.45871094 22.24285156 2.45871094 24.1484375 2.2890625 C25.08945312 2.19367187 26.03046875 2.09828125 27 2 C24.13488574 5.0120432 21.97243168 6.67585611 18 8 C17.67 7.34 17.34 6.68 17 6 C15.27295087 5.25501015 15.27295087 5.25501015 13.18359375 4.7109375 C12.41982422 4.49179687 11.65605469 4.27265625 10.86914062 4.046875 C10.06669922 3.82515625 9.26425781 3.6034375 8.4375 3.375 C7.22803711 3.03082031 7.22803711 3.03082031 5.99414062 2.6796875 C3.99807797 2.11275846 1.99928081 1.55547357 0 1 C0 0.67 0 0.34 0 0 Z " fill="#626262" transform="translate(234,19)"/>
<path d="M0 0 C0.99 0.33 1.98 0.66 3 1 C3 2.32 3 3.64 3 5 C3.99 5.33 4.98 5.66 6 6 C2.86501708 7.85776765 0.62528568 8.20140476 -3 8 C-3.36923077 3.44615385 -3.36923077 3.44615385 -1.5 1.1875 C-1.005 0.795625 -0.51 0.40375 0 0 Z " fill="#FF9A1B" transform="translate(336,43)"/>
<path d="M0 0 C1.93842773 0.01933594 1.93842773 0.01933594 3.91601562 0.0390625 C5.27084421 0.07247866 6.62566192 0.10633838 7.98046875 0.140625 C9.35479192 0.16070466 10.72914314 0.17895287 12.10351562 0.1953125 C15.45904731 0.24240768 18.81315002 0.30817365 22.16796875 0.390625 C22.16796875 0.720625 22.16796875 1.050625 22.16796875 1.390625 C21.33547607 1.40520752 20.5029834 1.41979004 19.64526367 1.43481445 C16.55307222 1.4959113 13.46154793 1.57007056 10.36987305 1.65307617 C8.37506245 1.70263819 6.37989618 1.73713633 4.38476562 1.77148438 C3.13115234 1.80693359 1.87753906 1.84238281 0.5859375 1.87890625 C-0.57139893 1.90509033 -1.72873535 1.93127441 -2.92114258 1.95825195 C-6.03764934 2.42116678 -6.97750097 2.91311098 -8.83203125 5.390625 C-9.82203125 5.060625 -10.81203125 4.730625 -11.83203125 4.390625 C-7.86417784 0.60922472 -5.43874246 -0.09583687 0 0 Z " fill="#303030" transform="translate(394.83203125,379.609375)"/>
<path d="M0 0 C0.99 0 1.98 0 3 0 C3.33 2.31 3.66 4.62 4 7 C2.02 7.33 0.04 7.66 -2 8 C-1.125 1.125 -1.125 1.125 0 0 Z " fill="#F8561A" transform="translate(346,38)"/>
<path d="M0 0 C1.32 0 2.64 0 4 0 C5.5625 2.8125 5.5625 2.8125 7 6 C6.67 6.99 6.34 7.98 6 9 C0.42857143 3.85714286 0.42857143 3.85714286 0 0 Z " fill="#919005" transform="translate(291,64)"/>
<path d="M0 0 C1.65 0 3.3 0 5 0 C4.34 3.3 3.68 6.6 3 10 C-0.00617269 6.99382731 0.40414684 4.17618402 0 0 Z " fill="#050505" transform="translate(241,34)"/>
<path d="M0 0 C0.66 0.33 1.32 0.66 2 1 C1.67 3.31 1.34 5.62 1 8 C1.66 8.33 2.32 8.66 3 9 C1.68 9.33 0.36 9.66 -1 10 C-1 7.69 -1 5.38 -1 3 C-1.66 2.67 -2.32 2.34 -3 2 C-2.01 1.34 -1.02 0.68 0 0 Z " fill="#FFDC29" transform="translate(325,47)"/>
<path d="M0 0 C3.875 0.875 3.875 0.875 5 2 C5.04063832 3.66617115 5.042721 5.33388095 5 7 C4.01 7.495 4.01 7.495 3 8 C1.92474806 5.34771188 0.90543849 2.71631546 0 0 Z " fill="#CECC05" transform="translate(296,63)"/>
<path d="M0 0 C0.33 0 0.66 0 1 0 C1.33 2.31 1.66 4.62 2 7 C0.68 7 -0.64 7 -2 7 C-2.125 4.625 -2.125 4.625 -2 2 C-1.34 1.34 -0.68 0.68 0 0 Z " fill="#F4200A" transform="translate(196,45)"/>
<path d="M0 0 C0.33 0 0.66 0 1 0 C1 1.98 1 3.96 1 6 C1.66 6.33 2.32 6.66 3 7 C1.35 7 -0.3 7 -2 7 C-2.125 4.625 -2.125 4.625 -2 2 C-1.34 1.34 -0.68 0.68 0 0 Z " fill="#FFA60F" transform="translate(335,44)"/>
<path d="M0 0 C4.8 3.44615385 4.8 3.44615385 5.8125 6.25 C5.874375 6.8275 5.93625 7.405 6 8 C2.57701423 6.85900474 1.85241234 5.99914379 0 3 C0 2.01 0 1.02 0 0 Z " fill="#706F03" transform="translate(290,66)"/>
</svg>
